<svg width="299" height="185" viewBox="0 0 299 185" fill="none" xmlns="http://www.w3.org/2000/svg">
<path d="M294.306 151.982H4.20904C1.87069 151.982 0 150.111 0 147.773C0 145.435 1.87069 143.564 4.20904 143.564H294.306C296.644 143.564 298.515 145.435 298.515 147.773C298.515 150.111 296.644 151.982 294.306 151.982Z" fill="#C9C9C9"/>
<path d="M58.7861 108.489C54.2965 108.489 50.6954 104.841 50.6954 100.398C50.6954 95.9552 54.3433 92.3073 58.7861 92.3073H104.618V108.536H58.7861V108.489Z" fill="#CECECE"/>
<path d="M107.284 111.295H58.7863C52.7533 111.295 47.8895 106.384 47.8895 100.398C47.8895 94.3653 52.8001 89.5015 58.7863 89.5015H107.284V111.295Z" fill="white"/>
<path d="M55.7931 97.8726H104.618" stroke="#1F3969" stroke-width="4" stroke-miterlimit="10" stroke-linecap="round" stroke-linejoin="round"/>
<path d="M55.7931 102.83H104.618" stroke="#1F3969" stroke-width="4" stroke-miterlimit="10" stroke-linecap="round" stroke-linejoin="round"/>
<path d="M58.7861 108.489C54.2965 108.489 50.6954 104.841 50.6954 100.398C50.6954 95.9552 54.3433 92.3073 58.7861 92.3073H104.618V108.536H58.7861V108.489Z" stroke="#1F3969" stroke-width="4" stroke-miterlimit="10" stroke-linecap="round" stroke-linejoin="round"/>
<path d="M58.7863 108.489C54.2966 108.489 50.6956 104.841 50.6956 100.398C50.6956 95.9554 54.3434 92.3076 58.7863 92.3076H105.413L107.284 89.5015H58.7863C52.7533 89.5015 47.8895 94.4121 47.8895 100.398C47.8895 106.431 52.8001 111.295 58.7863 111.295H107.284L105.413 108.489H58.7863Z" fill="#FF3E3E"/>
<path d="M58.7863 108.489C54.2966 108.489 50.6956 104.841 50.6956 100.398C50.6956 95.9554 54.3434 92.3076 58.7863 92.3076H105.413L107.284 89.5015H58.7863C52.7533 89.5015 47.8895 94.4121 47.8895 100.398C47.8895 106.431 52.8001 111.295 58.7863 111.295H107.284L105.413 108.489H58.7863Z" stroke="#1F3969" stroke-width="4" stroke-miterlimit="10" stroke-linecap="round" stroke-linejoin="round"/>
<path opacity="0.28" d="M96.8547 89.4545H88.2495V111.295H96.8547V89.4545Z" fill="#1F3969" stroke="#1F3969" stroke-width="4" stroke-miterlimit="10" stroke-linecap="round" stroke-linejoin="round"/>
<path d="M102.28 129.3H13.4687C11.7384 129.3 10.2886 127.897 10.2886 126.12V114.428C10.2886 112.698 11.6916 111.248 13.4687 111.248H102.28C104.01 111.248 105.46 112.651 105.46 114.428V126.12C105.46 127.897 104.057 129.3 102.28 129.3Z" fill="#50B56F"/>
<path d="M37.4603 120.882H36.2444V123.454H35.4493V117.234H37.4603C38.9101 117.234 39.6116 118.03 39.6116 119.059C39.6116 119.994 39.0036 120.882 37.4603 120.882ZM37.4603 120.181C38.3957 120.181 38.7698 119.76 38.7698 119.059C38.7698 118.357 38.3957 117.889 37.4603 117.889H36.2444V120.181H37.4603Z" fill="white"/>
<path d="M41.8563 117.234H42.7449L44.2882 120.368L45.8315 117.234H46.7201L44.7091 121.116V123.454H43.9141V121.116L41.8563 117.234Z" fill="white"/>
<path d="M48.9651 117.234H53.1741V117.889H51.4905V123.454H50.6955V117.889H49.0119V117.234H48.9651Z" fill="white"/>
<path d="M59.9552 120.648H56.775V123.454H55.98V117.234H56.775V119.947H59.9552V117.234H60.7502V123.454H59.9552V120.648Z" fill="white"/>
<path d="M66.7364 123.501C65.006 123.501 63.603 122.192 63.603 120.321C63.603 118.45 64.9593 117.141 66.7364 117.141C68.5136 117.141 69.8698 118.45 69.8698 120.321C69.8231 122.192 68.4668 123.501 66.7364 123.501ZM66.7364 122.8C68.0459 122.8 69.028 121.864 69.028 120.321C69.028 118.778 68.0459 117.842 66.7364 117.842C65.4269 117.842 64.4448 118.778 64.4448 120.321C64.4448 121.864 65.4269 122.8 66.7364 122.8Z" fill="white"/>
<path d="M77.5866 117.234V123.454H76.7915L73.5178 118.497V123.454H72.7228V117.234H73.5178L76.7915 122.145V117.234H77.5866Z" fill="white"/>
<path d="M102.28 129.3H13.4687C11.7384 129.3 10.2886 127.897 10.2886 126.12V114.428C10.2886 112.698 11.6916 111.248 13.4687 111.248H102.28C104.01 111.248 105.46 112.651 105.46 114.428V126.12C105.46 127.897 104.057 129.3 102.28 129.3Z" stroke="#1F3969" stroke-width="4" stroke-miterlimit="10" stroke-linecap="round" stroke-linejoin="round"/>
<path opacity="0.28" d="M102.28 111.295H88.2494V118.31C88.2494 122.706 91.8037 126.307 96.2466 126.307H105.46C105.46 126.26 105.46 126.213 105.46 126.167V114.475C105.46 112.698 104.057 111.295 102.28 111.295Z" fill="#1F3969" stroke="#1F3969" stroke-width="4" stroke-miterlimit="10" stroke-linecap="round" stroke-linejoin="round"/>
<path d="M127.3 132.948H24.4122C25.0202 134.444 25.3476 136.315 25.3476 138.279C25.3476 140.244 25.0202 142.068 24.4122 143.611H127.253C126.645 142.114 126.318 140.244 126.318 138.279C126.365 136.268 126.692 134.444 127.3 132.948Z" fill="#CECECE"/>
<path d="M130.106 130.095H21.6531V132.901H130.106V130.095Z" fill="#5F5AFF"/>
<path d="M130.106 130.095H21.6531V132.901H130.106V130.095Z" stroke="#1F3969" stroke-width="4" stroke-miterlimit="10" stroke-linecap="round" stroke-linejoin="round"/>
<path d="M130.106 143.564H21.6531V146.37H130.106V143.564Z" fill="#F6F9FD"/>
<path d="M130.106 143.564H21.6531V146.37H130.106V143.564Z" fill="#5F5AFF"/>
<path d="M130.106 143.564H21.6531V146.37H130.106V143.564Z" stroke="#1F3969" stroke-width="4" stroke-miterlimit="10" stroke-linecap="round" stroke-linejoin="round"/>
<path d="M183.982 136.409L182.579 120.648H159.476L158.073 136.409C157.745 140.057 155.547 143.564 152.086 146.37V146.417H189.968V146.37C186.507 143.564 184.309 140.057 183.982 136.409Z" fill="#BFCFE2"/>
<path opacity="0.28" d="M159.476 120.648L158.634 130.095H183.421L182.579 120.648H159.476Z" fill="#1F3969" stroke="#1F3969" stroke-width="4" stroke-miterlimit="10" stroke-linecap="round" stroke-linejoin="round"/>
<path d="M183.982 136.409L182.579 120.648H159.476L158.073 136.409C157.745 140.057 155.547 143.564 152.086 146.37V146.417H189.968V146.37C186.507 143.564 184.309 140.057 183.982 136.409Z" stroke="#1F3969" stroke-width="4" stroke-miterlimit="10" stroke-linecap="round" stroke-linejoin="round"/>
<path d="M244.919 122.987H97.1352C94.0486 122.987 91.5232 120.461 91.5232 117.375V21.0342C91.5232 17.9476 94.0486 15.4221 97.1352 15.4221H244.919C248.006 15.4221 250.531 17.9476 250.531 21.0342V117.375C250.531 120.508 248.006 122.987 244.919 122.987Z" fill="white"/>
<path d="M244.919 122.987H97.1352C94.0486 122.987 91.5232 120.461 91.5232 117.375V21.0342C91.5232 17.9476 94.0486 15.4221 97.1352 15.4221H244.919C248.006 15.4221 250.531 17.9476 250.531 21.0342V117.375C250.531 120.508 248.006 122.987 244.919 122.987Z" fill="#BFCFE2"/>
<path d="M244.919 122.987H97.1352C94.0486 122.987 91.5232 120.461 91.5232 117.375V21.0342C91.5232 17.9476 94.0486 15.4221 97.1352 15.4221H244.919C248.006 15.4221 250.531 17.9476 250.531 21.0342V117.375C250.531 120.508 248.006 122.987 244.919 122.987Z" stroke="#1F3969" stroke-width="4" stroke-miterlimit="10" stroke-linecap="round" stroke-linejoin="round"/>
<path d="M242.607 105.041V23.3857H99.4998V105.041H242.607Z" fill="#F6F9FD"/>
<path opacity="0.28" d="M104.618 15.4221V80.2414C104.618 82.2992 106.302 83.9828 108.359 83.9828H196.796C198.854 83.9828 200.537 82.2992 200.537 80.2414V15.4221H104.618Z" fill="#1F3969" stroke="#1F3969" stroke-width="4" stroke-miterlimit="10" stroke-linecap="round" stroke-linejoin="round"/>
<path d="M242.607 105.041V23.3857H99.4998V105.041H242.607Z" stroke="#1F3969" stroke-width="4" stroke-miterlimit="10" stroke-linecap="round" stroke-linejoin="round"/>
<path d="M164.76 113.961H177.341" stroke="#1F3969" stroke-width="4" stroke-miterlimit="10" stroke-linecap="round" stroke-linejoin="round"/>
<path d="M201.005 78.8384H112.568C110.511 78.8384 108.827 77.1548 108.827 75.097V5.78815C108.827 3.7304 110.511 2.04678 112.568 2.04678H201.005C203.063 2.04678 204.746 3.7304 204.746 5.78815V75.1438C204.746 77.2016 203.063 78.8384 201.005 78.8384Z" fill="#2D425E"/>
<path d="M204.746 11.1196H108.827V5.74137C108.827 3.68362 110.511 2 112.568 2H201.005C203.063 2 204.746 3.68362 204.746 5.74137V11.1196Z" stroke="#1F3969" stroke-width="4" stroke-miterlimit="10" stroke-linecap="round" stroke-linejoin="round"/>
<path d="M204.746 12.8967H108.827V5.74137C108.827 3.68362 110.511 2 112.568 2H201.005C203.063 2 204.746 3.68362 204.746 5.74137V12.8967Z" fill="#D0DDF0"/>
<path d="M204.746 12.8967H108.827V5.74137C108.827 3.68362 110.511 2 112.568 2H201.005C203.063 2 204.746 3.68362 204.746 5.74137V12.8967Z" stroke="#1F3969" stroke-width="4" stroke-miterlimit="10" stroke-linecap="round" stroke-linejoin="round"/>
<path d="M204.746 12.8967H108.827V5.74137C108.827 3.68362 110.511 2 112.568 2H201.005C203.063 2 204.746 3.68362 204.746 5.74137V12.8967Z" stroke="#1F3969" stroke-width="4" stroke-miterlimit="10" stroke-linecap="round" stroke-linejoin="round"/>
<path d="M201.005 78.8384H112.568C110.511 78.8384 108.827 77.1548 108.827 75.097V5.78815C108.827 3.7304 110.511 2.04678 112.568 2.04678H201.005C203.063 2.04678 204.746 3.7304 204.746 5.78815V75.1438C204.746 77.2016 203.063 78.8384 201.005 78.8384Z" stroke="#1F3969" stroke-width="4" stroke-miterlimit="10" stroke-linecap="round" stroke-linejoin="round"/>
<path opacity="0.28" d="M247.164 95.3939H192.914C190.856 95.3939 189.173 93.7103 189.173 91.6526V34.1758C189.173 32.118 190.856 30.4344 192.914 30.4344H247.164C249.222 30.4344 250.905 32.118 250.905 34.1758V91.6526C250.905 93.7571 249.222 95.3939 247.164 95.3939Z" fill="#1F3969" stroke="#1F3969" stroke-width="4" stroke-miterlimit="10" stroke-linecap="round" stroke-linejoin="round"/>
<path d="M250.906 92.1203H196.656C194.598 92.1203 192.914 90.4367 192.914 88.3789V30.9021C192.914 28.8444 194.598 27.1607 196.656 27.1607H250.906C252.963 27.1607 254.647 28.8444 254.647 30.9021V88.3789C254.647 90.4834 252.963 92.1203 250.906 92.1203Z" fill="#2AA1FF"/>
<path d="M250.906 92.1203H196.656C194.598 92.1203 192.914 90.4367 192.914 88.3789V30.9021C192.914 28.8444 194.598 27.1607 196.656 27.1607H250.906C252.963 27.1607 254.647 28.8444 254.647 30.9021V88.3789C254.647 90.4834 252.963 92.1203 250.906 92.1203Z" stroke="#1F3969" stroke-width="4" stroke-miterlimit="10" stroke-linecap="round" stroke-linejoin="round"/>
<path opacity="0.34" d="M242.815 44.979H204.653C203.297 44.979 202.221 43.9034 202.221 42.5471V38.8993C202.221 37.543 203.297 36.4674 204.653 36.4674H242.815C244.171 36.4674 245.247 37.543 245.247 38.8993V42.5471C245.247 43.9034 244.171 44.979 242.815 44.979Z" stroke="white" stroke-width="2" stroke-miterlimit="10" stroke-linecap="round" stroke-linejoin="round"/>
<g opacity="0.34">
<path opacity="0.34" d="M226.072 58.6818H204.746C203.39 58.6818 202.314 57.6061 202.314 56.2499V52.602C202.314 51.2458 203.39 50.1702 204.746 50.1702H226.072C227.428 50.1702 228.504 51.2458 228.504 52.602V56.2499C228.457 57.6061 227.382 58.6818 226.072 58.6818Z" stroke="white" stroke-width="2" stroke-miterlimit="10" stroke-linecap="round" stroke-linejoin="round"/>
<path opacity="0.34" d="M242.862 58.6818H234.584C233.228 58.6818 232.152 57.6061 232.152 56.2499V52.602C232.152 51.2458 233.228 50.1702 234.584 50.1702H242.862C244.218 50.1702 245.294 51.2458 245.294 52.602V56.2499C245.294 57.6061 244.218 58.6818 242.862 58.6818Z" stroke="white" stroke-width="2" stroke-miterlimit="10" stroke-linecap="round" stroke-linejoin="round"/>
</g>
<path d="M202.268 72.899H245.247" stroke="white" stroke-width="2" stroke-miterlimit="10" stroke-linecap="round" stroke-linejoin="round"/>
<path d="M202.268 77.9498H245.247" stroke="white" stroke-width="2" stroke-miterlimit="10" stroke-linecap="round" stroke-linejoin="round"/>
<path d="M202.268 83.0007H228.457" stroke="white" stroke-width="2" stroke-miterlimit="10" stroke-linecap="round" stroke-linejoin="round"/>
<path d="M118.227 9.34245C119.26 9.34245 120.098 8.50485 120.098 7.47176C120.098 6.43867 119.26 5.60107 118.227 5.60107C117.194 5.60107 116.356 6.43867 116.356 7.47176C116.356 8.50485 117.194 9.34245 118.227 9.34245Z" fill="#1F3969"/>
<path d="M124.728 9.34245C125.761 9.34245 126.598 8.50485 126.598 7.47176C126.598 6.43867 125.761 5.60107 124.728 5.60107C123.695 5.60107 122.857 6.43867 122.857 7.47176C122.857 8.50485 123.695 9.34245 124.728 9.34245Z" fill="#1F3969"/>
<path d="M131.228 9.34245C132.262 9.34245 133.099 8.50485 133.099 7.47176C133.099 6.43867 132.262 5.60107 131.228 5.60107C130.195 5.60107 129.358 6.43867 129.358 7.47176C129.358 8.50485 130.195 9.34245 131.228 9.34245Z" fill="#1F3969"/>
<path d="M163.919 21.5486H169.998" stroke="white" stroke-width="4" stroke-miterlimit="10" stroke-linecap="round" stroke-linejoin="round"/>
<path d="M133.099 21.5486H159.429" stroke="#7BFFA0" stroke-width="4" stroke-miterlimit="10" stroke-linecap="round" stroke-linejoin="round"/>
<path d="M120.098 21.5486H129.358" stroke="#9169FF" stroke-width="4" stroke-miterlimit="10" stroke-linecap="round" stroke-linejoin="round"/>
<path d="M132.164 67.6143H152.274" stroke="#9169FF" stroke-width="4" stroke-miterlimit="10" stroke-linecap="round" stroke-linejoin="round"/>
<path d="M120.098 67.6143H126.599" stroke="#7BFFA0" stroke-width="4" stroke-miterlimit="10" stroke-linecap="round" stroke-linejoin="round"/>
<path d="M159.429 27.301H163.217" stroke="white" stroke-width="4" stroke-miterlimit="10" stroke-linecap="round" stroke-linejoin="round"/>
<path d="M142.219 27.301H154.939" stroke="#9169FF" stroke-width="4" stroke-miterlimit="10" stroke-linecap="round" stroke-linejoin="round"/>
<path d="M124.728 27.301H137.682" stroke="#FFC47D" stroke-width="4" stroke-miterlimit="10" stroke-linecap="round" stroke-linejoin="round"/>
<path d="M144.791 33.0534H155.968" stroke="white" stroke-width="4" stroke-miterlimit="10" stroke-linecap="round" stroke-linejoin="round"/>
<path d="M130.761 33.0534H141.283" stroke="#FF5757" stroke-width="4" stroke-miterlimit="10" stroke-linecap="round" stroke-linejoin="round"/>
<path d="M146.287 38.8057H148.579" stroke="white" stroke-width="4" stroke-miterlimit="10" stroke-linecap="round" stroke-linejoin="round"/>
<path d="M137.028 38.8057H142.219" stroke="#9169FF" stroke-width="4" stroke-miterlimit="10" stroke-linecap="round" stroke-linejoin="round"/>
<path d="M124.728 38.8057H133.099" stroke="#7BFFA0" stroke-width="4" stroke-miterlimit="10" stroke-linecap="round" stroke-linejoin="round"/>
<path d="M142.686 44.6049H157.605" stroke="#FFC47D" stroke-width="4" stroke-miterlimit="10" stroke-linecap="round" stroke-linejoin="round"/>
<path d="M124.728 44.6049H138.103" stroke="#FF5757" stroke-width="4" stroke-miterlimit="10" stroke-linecap="round" stroke-linejoin="round"/>
<path d="M159.943 50.3572H168.034" stroke="#9169FF" stroke-width="4" stroke-miterlimit="10" stroke-linecap="round" stroke-linejoin="round"/>
<path d="M142.686 50.3572H155.641" stroke="#FF5757" stroke-width="4" stroke-miterlimit="10" stroke-linecap="round" stroke-linejoin="round"/>
<path d="M130.761 50.3572H138.103" stroke="#7BFFA0" stroke-width="4" stroke-miterlimit="10" stroke-linecap="round" stroke-linejoin="round"/>
<path d="M148.579 56.1096H155.641" stroke="white" stroke-width="4" stroke-miterlimit="10" stroke-linecap="round" stroke-linejoin="round"/>
<path d="M130.761 56.1096H143.715" stroke="#9169FF" stroke-width="4" stroke-miterlimit="10" stroke-linecap="round" stroke-linejoin="round"/>
<path d="M166.958 61.8619H175.049" stroke="white" stroke-width="4" stroke-miterlimit="10" stroke-linecap="round" stroke-linejoin="round"/>
<path d="M142.219 61.8619H162.562" stroke="#FFC47D" stroke-width="4" stroke-miterlimit="10" stroke-linecap="round" stroke-linejoin="round"/>
<path d="M124.728 61.8619H137.682" stroke="white" stroke-width="4" stroke-miterlimit="10" stroke-linecap="round" stroke-linejoin="round"/>
<path d="M25.5814 136.175H126.365" stroke="#1F3969" stroke-width="4" stroke-miterlimit="10" stroke-linecap="round" stroke-linejoin="round"/>
<path d="M25.5814 139.916H126.365" stroke="#1F3969" stroke-width="4" stroke-miterlimit="10" stroke-linecap="round" stroke-linejoin="round"/>
<path d="M127.3 132.948H24.4122C25.0202 134.444 25.3476 136.315 25.3476 138.279C25.3476 140.244 25.0202 142.068 24.4122 143.611H127.253C126.645 142.114 126.318 140.244 126.318 138.279C126.365 136.268 126.692 134.444 127.3 132.948Z" stroke="#1F3969" stroke-width="4" stroke-miterlimit="10" stroke-linecap="round" stroke-linejoin="round"/>
<path d="M265.707 94.8192L261.155 95.3537L265.114 129.076L269.666 128.541L265.707 94.8192Z" fill="#FFA364"/>
<path d="M265.713 94.8554L261.161 95.3899L261.565 98.8268L266.117 98.2923L265.713 94.8554Z" fill="#2AA1FF"/>
<path d="M265.713 94.8554L261.161 95.3899L261.565 98.8268L266.117 98.2923L265.713 94.8554Z" stroke="#1F3969" stroke-width="4" stroke-miterlimit="10" stroke-linecap="round" stroke-linejoin="round"/>
<path d="M265.707 94.8192L261.155 95.3537L265.114 129.076L269.666 128.541L265.707 94.8192Z" stroke="#1F3969" stroke-width="4" stroke-miterlimit="10" stroke-linecap="round" stroke-linejoin="round"/>
<path d="M278.189 101.727L273.633 101.231L269.963 134.984L274.519 135.479L278.189 101.727Z" fill="#FF5252"/>
<path d="M278.189 101.727L273.633 101.231L269.963 134.984L274.519 135.479L278.189 101.727Z" stroke="#1F3969" stroke-width="4" stroke-miterlimit="10" stroke-linecap="round" stroke-linejoin="round"/>
<path d="M278.223 101.735L273.667 101.239L273.292 104.68L277.849 105.175L278.223 101.735Z" fill="#2D425E"/>
<path d="M278.223 101.735L273.667 101.239L273.292 104.68L277.849 105.175L278.223 101.735Z" stroke="#1F3969" stroke-width="4" stroke-miterlimit="10" stroke-linecap="round" stroke-linejoin="round"/>
<path d="M281.024 146.51H262.644L259.651 118.357H284.017L281.024 146.51Z" fill="#6567C3"/>
<path d="M259.651 118.357L259.698 118.871H278.264L275.318 146.51H281.024L284.017 118.357H259.651Z" fill="#6567C3"/>
<path d="M281.024 146.51H262.644L259.651 118.357H284.017L281.024 146.51Z" stroke="#1F3969" stroke-width="4" stroke-miterlimit="10" stroke-linecap="round" stroke-linejoin="round"/>
<path d="M84.7654 179.857H82.4578V184.868H80.8755V172.869H84.7654C87.6004 172.869 88.919 174.418 88.919 176.396C88.919 178.209 87.7652 179.857 84.7654 179.857ZM84.7654 178.572C86.5455 178.572 87.3037 177.715 87.3037 176.396C87.3037 175.012 86.5455 174.187 84.7654 174.187H82.4578V178.605H84.7654V178.572Z" fill="#2D425E"/>
<path d="M96.468 172.869C99.303 172.869 100.622 174.451 100.622 176.396C100.622 177.913 99.7645 179.396 97.7536 179.824L100.753 184.868H98.8744L96.0065 179.956H94.1275V184.868H92.5452V172.869H96.468ZM96.468 174.154H94.1604V178.704H96.468C98.2481 178.704 99.0063 177.748 99.0063 176.396C99.0063 175.045 98.2481 174.154 96.468 174.154Z" fill="#2D425E"/>
<path d="M110.214 185C106.852 185 104.182 182.462 104.182 178.868C104.182 175.275 106.819 172.737 110.214 172.737C113.61 172.737 116.247 175.275 116.247 178.868C116.247 182.462 113.61 185 110.214 185ZM110.214 183.615C112.753 183.615 114.632 181.769 114.632 178.836C114.632 175.902 112.753 174.056 110.214 174.056C107.676 174.056 105.797 175.869 105.797 178.836C105.797 181.802 107.676 183.615 110.214 183.615Z" fill="#2D425E"/>
<path d="M131.015 176.33H129.136C128.477 174.946 127.158 174.122 125.477 174.122C122.939 174.122 121.06 175.935 121.06 178.836C121.06 181.703 122.939 183.55 125.477 183.55C127.851 183.55 129.466 182.033 129.697 179.66H124.917V178.374H131.378V179.594C131.114 182.561 128.741 184.967 125.477 184.967C122.115 184.967 119.445 182.462 119.445 178.868C119.445 175.275 122.082 172.737 125.477 172.737C128.015 172.737 130.125 174.023 131.015 176.33Z" fill="#2D425E"/>
<path d="M139.026 172.869C141.861 172.869 143.179 174.451 143.179 176.396C143.179 177.913 142.322 179.396 140.311 179.824L143.311 184.868H141.432L138.564 179.956H136.685V184.868H135.103V172.869H139.026ZM139.026 174.154H136.718V178.704H139.026C140.806 178.704 141.564 177.748 141.564 176.396C141.597 175.045 140.839 174.154 139.026 174.154Z" fill="#2D425E"/>
<path d="M154.453 182.198H149.212L148.256 184.868H146.608L150.959 172.935H152.772L157.091 184.868H155.442L154.453 182.198ZM151.816 174.88L149.64 180.945H153.992L151.816 174.88Z" fill="#2D425E"/>
<path d="M160.684 172.968H162.365L166.782 182.824L171.2 172.968H172.881V184.868H171.298V175.968L167.343 184.868H166.255L162.266 175.968V184.868H160.684V172.968Z" fill="#2D425E"/>
<path d="M177.232 172.968H178.914L183.331 182.824L187.748 172.968H189.429V184.868H187.847V175.968L183.891 184.868H182.803L178.815 175.968V184.868H177.232V172.968Z" fill="#2D425E"/>
<path d="M193.781 172.869H195.363V184.868H193.781V172.869Z" fill="#2D425E"/>
<path d="M209.175 172.836V184.868H207.593L201.297 175.308V184.868H199.714V172.836H201.297L207.593 182.363V172.836H209.175Z" fill="#2D425E"/>
<path d="M224.537 176.33H222.658C221.999 174.946 220.68 174.122 218.999 174.122C216.46 174.122 214.581 175.935 214.581 178.836C214.581 181.703 216.46 183.55 218.999 183.55C221.372 183.55 222.988 182.033 223.218 179.66H218.438V178.374H224.9V179.594C224.636 182.561 222.262 184.967 218.999 184.967C215.636 184.967 212.966 182.462 212.966 178.868C212.966 175.275 215.603 172.737 218.999 172.737C221.537 172.737 223.647 174.023 224.537 176.33Z" fill="#2D425E"/>
</svg>
